<svg viewBox="0 -80 1000 407" xmlns="http://www.w3.org/2000/svg" style="fill: currentColor;">
  <g>
    <path d="M32.525,217.683C23.551,217.683 16.024,214.571 9.944,208.347C3.865,202.123 0.825,194.668 0.825,185.983L0.825,32.26C0.825,23.575 3.865,16.12 9.944,9.896C16.024,3.672 23.551,0.56 32.525,0.56L91.583,0.56C100.268,0.56 107.722,3.672 113.946,9.896C120.171,16.12 123.283,23.575 123.283,32.26L123.283,79.593L82.463,79.593L82.463,57.012C82.463,52.669 80.871,48.978 77.687,45.938C74.502,42.899 70.739,41.379 66.396,41.379L57.277,41.379C52.935,41.379 49.244,42.899 46.204,45.938C43.164,48.978 41.644,52.669 41.644,57.012L41.644,161.231C41.644,165.573 43.164,169.265 46.204,172.304C49.244,175.344 52.935,176.864 57.277,176.864L66.396,176.864C70.739,176.864 74.502,175.344 77.687,172.304C80.871,169.265 82.463,165.573 82.463,161.231L82.463,138.65L123.283,138.65L123.283,185.983C123.283,194.668 120.171,202.123 113.946,208.347C107.722,214.571 100.268,217.683 91.583,217.683L32.525,217.683Z" />
    <path d="M189.722,217.683C181.037,217.683 173.583,214.643 167.359,208.564C161.134,202.484 158.022,194.957 158.022,185.983L158.022,32.26C158.022,23.575 161.134,16.12 167.359,9.896C173.583,3.672 181.037,0.56 189.722,0.56L343.446,0.56C352.131,0.56 359.585,3.672 365.809,9.896C372.034,16.12 375.146,23.575 375.146,32.26L375.146,185.983C375.146,194.957 372.034,202.484 365.809,208.564C359.585,214.643 352.131,217.683 343.446,217.683L189.722,217.683Z" />
    <path d="M409.886,217.683L409.886,0.56L500.643,0.56C509.328,0.56 516.783,3.672 523.007,9.896C529.231,16.12 532.343,23.575 532.343,32.26L532.343,79.593L491.524,70.473L491.524,57.446C491.524,53.103 490.004,49.34 486.964,46.156C483.925,42.971 480.234,41.379 475.891,41.379L450.705,41.379L450.705,217.683L409.886,217.683Z" />
    <path d="M549.713,326.245L549.713,0.56L640.471,0.56C649.445,0.56 656.972,3.599 663.051,9.679C669.131,15.758 672.171,23.285 672.171,32.26L672.171,185.983C672.171,194.957 669.131,202.484 663.051,208.564C656.972,214.643 649.445,217.683 640.471,217.683L590.532,217.683L590.532,326.245L549.713,326.245ZM590.532,176.864L615.719,176.864C619.771,176.864 623.39,175.272 626.575,172.087C629.759,168.903 631.351,165.284 631.351,161.231L631.351,57.446C631.351,52.524 629.759,48.616 626.575,45.721C623.39,42.826 619.771,41.379 615.719,41.379L590.532,41.379L590.532,176.864Z" />
    <path d="M738.61,217.683C729.925,217.683 722.471,214.643 716.247,208.564C710.022,202.484 706.91,194.957 706.91,185.983L706.91,32.26C706.91,23.575 710.022,16.12 716.247,9.896C722.471,3.672 729.925,0.56 738.61,0.56L892.334,0.56C901.019,0.56 908.473,3.672 914.697,9.896C920.922,16.12 924.034,23.575 924.034,32.26L924.034,185.983C924.034,194.957 920.922,202.484 914.697,208.564C908.473,214.643 901.019,217.683 892.334,217.683L738.61,217.683Z" />
    <rect x="958.774" y="176.864" width="40.819" height="40.819" />
  </g>
</svg>
