<svg
  viewBox="0 0 1000 1000"
  xmlns="http://www.w3.org/2000/svg"
  fill="none"
>
  <style>
    .primary { fill: #ef403d; }
    .secondary { fill: #272727; }

    @media (prefers-color-scheme: dark) {
      .secondary { fill: #f9f4eb; }
    }
  </style>

  <g transform="matrix(1.21305,0,0,1.21305,-178.958619,-2119.723746)">
    <g transform="matrix(5.035712,0,0,5.124121,-3672.974118,-883.106766)">
      <path
        class="primary"
        d="M802.262,541.635C812.214,541.635 820.235,543.157 826.322,546.201C832.41,549.244 836.855,554.414 839.657,561.71C842.459,569.005 843.86,579.03 843.86,591.785C843.86,605.506 842.459,616.329 839.657,624.252C836.855,632.176 832.41,637.78 826.322,641.066C820.235,644.351 812.214,645.994 802.262,645.994L767.765,645.994L767.765,561.492L759.793,541.635L802.262,541.635ZM800.522,622.803C803.614,622.803 806.103,621.861 807.987,619.977C809.871,618.092 811.248,614.904 812.118,610.41C812.987,605.917 813.422,599.709 813.422,591.785C813.422,584.538 813.036,578.958 812.263,575.044C811.49,571.131 810.185,568.449 808.349,567C806.513,565.551 803.904,564.826 800.522,564.826L796.029,564.826L796.029,622.803L800.522,622.803Z"
      />
      <path
        class="secondary"
        d="M916.925,564.81L897.789,564.81L897.789,645.994L869.375,645.994L869.375,564.81L848.209,564.81L848.209,541.615L921.274,541.615L916.925,564.81Z"
      />
    </g>
  </g>
</svg>
